<svg xmlns="http://www.w3.org/2000/svg" width="180" height="40" viewBox="0 0 180 40">
  <defs>
    <linearGradient id="logo-gradient" x1="0%" y1="0%" x2="100%" y2="0%">
      <stop offset="0%" stop-color="#ffffff" />
      <stop offset="100%" stop-color="#ffffff" />
    </linearGradient>
  </defs>
  <path d="M22.8,12.8L35.2,33.6H31.6L27.3,25.5H13.7L9.4,33.6H5.8L18.2,12.8H22.8z M25.8,22.7l-5.3-9.8l-5.3,9.8H25.8z" fill="#fff"/>
  <path d="M47.7,33.6V20.3c0-1.6-0.3-2.8-1-3.5c-0.7-0.7-1.7-1.1-3.1-1.1c-0.9,0-1.7,0.2-2.5,0.5c-0.8,0.3-1.5,0.8-2.2,1.5v15.9h-3.2V13.2h2.5l0.7,2c1.6-1.6,3.5-2.4,5.8-2.4c2.2,0,3.9,0.6,5.1,1.8c1.2,1.2,1.8,2.9,1.8,5.2v13.8H47.7z" fill="#fff"/>
  <path d="M67.4,33.6V20.3c0-1.6-0.3-2.8-1-3.5c-0.7-0.7-1.7-1.1-3.1-1.1c-0.9,0-1.7,0.2-2.5,0.5c-0.8,0.3-1.5,0.8-2.2,1.5v15.9h-3.2V13.2h2.5l0.7,2c1.6-1.6,3.5-2.4,5.8-2.4c2.2,0,3.9,0.6,5.1,1.8c1.2,1.2,1.8,2.9,1.8,5.2v13.8H67.4z" fill="#fff"/>
  <path d="M86.9,33.6V20.9c0-1.6-0.3-2.9-1-3.7c-0.7-0.8-1.7-1.2-3-1.2c-1.8,0-3.4,0.8-4.7,2.5v15.1h-3.2V6h3.2v9.1c1.6-1.4,3.4-2.2,5.5-2.2c4.6,0,6.9,2.7,6.9,8v12.7H86.9z" fill="#fff"/>
  <path d="M103.9,33.6c-0.8,0.3-1.6,0.4-2.4,0.4c-4.2,0-6.3-2.4-6.3-7.3V15.6h-3.2v-2.4h3.2V8.7l3.2-0.9v5.4h5.1v2.4h-5.1v10.7c0,1.6,0.3,2.7,0.8,3.4c0.5,0.7,1.4,1,2.7,1c0.7,0,1.3-0.1,2-0.3V33.6z" fill="#fff"/>
  <path d="M118.9,34c-2.2,0-4.2-0.5-6-1.6c-1.8-1.1-3.1-2.5-4.1-4.4c-1-1.9-1.5-4-1.5-6.2c0-2.3,0.5-4.3,1.5-6.1c1-1.8,2.3-3.3,4.1-4.3c1.7-1,3.7-1.6,5.9-1.6c2.2,0,4.1,0.5,5.9,1.6c1.7,1,3.1,2.5,4.1,4.3c1,1.8,1.5,3.9,1.5,6.1c0,2.3-0.5,4.3-1.5,6.1c-1,1.8-2.4,3.3-4.1,4.3C123.1,33.5,121.1,34,118.9,34z M118.9,31.4c1.6,0,3-0.4,4.2-1.1c1.2-0.7,2.2-1.8,2.9-3.2c0.7-1.4,1-2.9,1-4.7c0-1.7-0.3-3.3-1-4.6c-0.7-1.3-1.7-2.4-2.9-3.1c-1.2-0.7-2.6-1.1-4.2-1.1c-1.6,0-3,0.4-4.2,1.1c-1.2,0.7-2.2,1.8-2.9,3.1c-0.7,1.3-1,2.9-1,4.6c0,1.7,0.3,3.3,1,4.7c0.7,1.4,1.6,2.4,2.9,3.2C115.9,31,117.3,31.4,118.9,31.4z" fill="#fff"/>
  <path d="M147.5,33.6V20.9c0-1.6-0.3-2.9-1-3.7c-0.7-0.8-1.7-1.2-3-1.2c-1.8,0-3.4,0.8-4.7,2.5v15.1h-3.2V13.2h2.5l0.7,2.1c1.6-1.6,3.5-2.4,5.8-2.4c2.1,0,3.8,0.6,5,1.8c1.2,1.2,1.8,2.9,1.8,5.2v13.8H147.5z" fill="#fff"/>
  <path d="M166.5,34c-2.2,0-4.2-0.5-6-1.6c-1.8-1.1-3.1-2.5-4.1-4.4c-1-1.9-1.5-4-1.5-6.2c0-2.3,0.5-4.3,1.5-6.1c1-1.8,2.3-3.3,4.1-4.3c1.7-1,3.7-1.6,5.9-1.6c2.2,0,4.1,0.5,5.9,1.6c1.7,1,3.1,2.5,4.1,4.3c1,1.8,1.5,3.9,1.5,6.1c0,2.3-0.5,4.3-1.5,6.1c-1,1.8-2.4,3.3-4.1,4.3C170.7,33.5,168.7,34,166.5,34z M166.5,31.4c1.6,0,3-0.4,4.2-1.1c1.2-0.7,2.2-1.8,2.9-3.2c0.7-1.4,1-2.9,1-4.7c0-1.7-0.3-3.3-1-4.6c-0.7-1.3-1.7-2.4-2.9-3.1c-1.2-0.7-2.6-1.1-4.2-1.1c-1.6,0-3,0.4-4.2,1.1c-1.2,0.7-2.2,1.8-2.9,3.1c-0.7,1.3-1,2.9-1,4.6c0,1.7,0.3,3.3,1,4.7c0.7,1.4,1.6,2.4,2.9,3.2C163.5,31,164.9,31.4,166.5,31.4z" fill="#fff"/>
  <circle cx="20.7" cy="22.3" r="16" fill="none" stroke="url(#logo-gradient)" stroke-width="3"/>
</svg> 