<svg xmlns="http://www.w3.org/2000/svg" width="24" height="24" viewBox="0 0 24 24" fill="none" stroke="currentColor" stroke-width="1.6" stroke-linecap="round" stroke-linejoin="round" aria-hidden="true">
  <ellipse cx="6.5" cy="5" rx="3.5" ry="1.6"/>
  <path d="M3 5v6c0 .9 1.6 1.6 3.5 1.6S10 11.9 10 11V5"/>
  <path d="M3 11v6c0 .9 1.6 1.6 3.5 1.6S10 17.9 10 17v-6"/>
  <ellipse cx="17.5" cy="5" rx="3.5" ry="1.6"/>
  <path d="M14 5v6c0 .9 1.6 1.6 3.5 1.6S21 11.9 21 11V5"/>
  <path d="M14 11v6c0 .9 1.6 1.6 3.5 1.6S21 17.9 21 17v-6"/>
</svg>
