<svg xmlns="http://www.w3.org/2000/svg" width="24" height="24" viewBox="0 0 24 24" fill="none" stroke="currentColor" stroke-width="1.6" stroke-linecap="round" stroke-linejoin="round" aria-hidden="true">
  <path d="M21 16.5v3a2 2 0 0 1-2.18 2 19.86 19.86 0 0 1-8.66-3.07 19.5 19.5 0 0 1-6-6A19.86 19.86 0 0 1 1.09 3.7 2 2 0 0 1 3.08 1.5h3a2 2 0 0 1 2 1.72c.13.96.36 1.91.7 2.81a2 2 0 0 1-.45 2.11L7.1 9.37a16 16 0 0 0 6 6l1.23-1.23a2 2 0 0 1 2.11-.45c.9.34 1.85.57 2.81.7A2 2 0 0 1 21 16.5z"/>
</svg>
