<svg xmlns="http://www.w3.org/2000/svg" width="24" height="24" viewBox="0 0 24 24" fill="none">
  <path d="M22,4 C21,4.5 20,4.8 19,5 C18.1,4 16.8,3.7 15.5,4 C14.2,4.3 13.1,5.3 12.8,6.6 C12.7,7 12.7,7.4 12.8,7.8 C9.3,7.6 6.1,6 4,3.5 C3,5.2 3.5,7.3 5,8.5 C4.3,8.5 3.6,8.3 3,8 C3,9.7 4.2,11.1 6,11.5 C5.3,11.7 4.6,11.7 4,11.5 C4.5,12.9 5.7,13.9 7.2,14 C6,14.9 4.5,15.4 3,15.4 C2.7,15.4 2.3,15.4 2,15.3 C3.5,16.5 5.3,17 7,17 C14.7,17 19,10.8 19,5.5 C19,5.3 19,5.2 19,5 C20,4.3 20.8,3.5 21.5,2.5 C20.7,2.8 19.8,3.1 19,3.2 C20,2.6 20.7,1.7 21,0.6" stroke="#ffffff" stroke-width="2" stroke-linecap="round" stroke-linejoin="round" />
</svg> 