<svg width="24" height="24" viewBox="0 0 24 24" fill="none" xmlns="http://www.w3.org/2000/svg">
  <path d="M22.5 6.00196C22.2 5.09996 21.5 4.39996 20.6 4.09996C18.9 3.49996 12 3.49996 12 3.49996C12 3.49996 5.10001 3.49996 3.40001 4.09996C2.50001 4.39996 1.80001 5.09996 1.50001 6.00196C0.900005 7.70196 0.900005 11.5 0.900005 11.5C0.900005 11.5 0.900005 15.298 1.50001 16.998C1.80001 17.9 2.50001 18.6 3.40001 18.9C5.10001 19.5 12 19.5 12 19.5C12 19.5 18.9 19.5 20.6 18.9C21.5 18.6 22.2 17.9 22.5 16.998C23.1 15.298 23.1 11.5 23.1 11.5C23.1 11.5 23.1 7.70196 22.5 6.00196Z" fill="white"/>
  <path d="M9.75 15.002L15.5 11.5L9.75 7.99805V15.002Z" fill="#111111"/>
</svg> 