<?xml version="1.0" encoding="UTF-8"?>
<svg width="500" height="300" viewBox="0 0 500 300" xmlns="http://www.w3.org/2000/svg">
  <!-- Definitions -->
  <defs>
    <!-- Gradients -->
    <linearGradient id="headerGradient" x1="0%" y1="0%" x2="100%" y2="0%">
      <stop offset="0%" stop-color="#2C3E50" />
      <stop offset="100%" stop-color="#1A2530" />
    </linearGradient>
    
    <linearGradient id="bgGradient" x1="0%" y1="0%" x2="0%" y2="100%">
      <stop offset="0%" stop-color="#1E2A3A" />
      <stop offset="100%" stop-color="#15202E" />
    </linearGradient>
    
    <linearGradient id="accentGradient" x1="0%" y1="0%" x2="100%" y2="100%">
      <stop offset="0%" stop-color="#4A6ADA" />
      <stop offset="100%" stop-color="#2C53C5" />
    </linearGradient>
    
    <linearGradient id="cardGradient" x1="0%" y1="0%" x2="0%" y2="100%">
      <stop offset="0%" stop-color="#1A2530" />
      <stop offset="100%" stop-color="#15202B" />
    </linearGradient>
    
    <linearGradient id="neuronsGradient" x1="0%" y1="0%" x2="100%" y2="100%">
      <stop offset="0%" stop-color="#8E54E9" />
      <stop offset="100%" stop-color="#4A6ADA" />
    </linearGradient>
    
    <linearGradient id="chartGradient1" x1="0%" y1="0%" x2="0%" y2="100%">
      <stop offset="0%" stop-color="#0BAB64" />
      <stop offset="100%" stop-color="#3BB78F" />
    </linearGradient>
    
    <linearGradient id="chartGradient2" x1="0%" y1="0%" x2="0%" y2="100%">
      <stop offset="0%" stop-color="#FF9500" />
      <stop offset="100%" stop-color="#FF5E3A" />
    </linearGradient>
    
    <linearGradient id="chartGradient3" x1="0%" y1="0%" x2="0%" y2="100%">
      <stop offset="0%" stop-color="#4A6ADA" />
      <stop offset="100%" stop-color="#2C53C5" />
    </linearGradient>
    
    <!-- Filters -->
    <filter id="softShadow" x="-50%" y="-50%" width="200%" height="200%">
      <feGaussianBlur in="SourceAlpha" stdDeviation="3" />
      <feOffset dx="0" dy="2" result="offsetblur" />
      <feComponentTransfer>
        <feFuncA type="linear" slope="0.2" />
      </feComponentTransfer>
      <feMerge>
        <feMergeNode />
        <feMergeNode in="SourceGraphic" />
      </feMerge>
    </filter>
    
    <filter id="glow" x="-50%" y="-50%" width="200%" height="200%">
      <feGaussianBlur in="SourceGraphic" stdDeviation="2" />
      <feComponentTransfer>
        <feFuncA type="linear" slope="0.3" />
      </feComponentTransfer>
      <feMerge>
        <feMergeNode />
        <feMergeNode in="SourceGraphic" />
      </feMerge>
    </filter>
    
    <!-- Animation paths for neural connections -->
    <path id="neuralPath1" d="M375,155 L360,170 L375,185" />
    <path id="neuralPath2" d="M375,155 L390,170 L375,185" />
    <path id="neuralPath3" d="M405,155 L390,170 L405,185" />
    <path id="neuralPath4" d="M405,155 L420,170 L405,185" />
    
    <!-- Animation path for data flow -->
    <path id="dataFlow1" d="M120,150 C160,120 200,180 240,150" />
    <path id="dataFlow2" d="M260,150 C300,120 340,180 380,150" />
    <path id="dataFlow3" d="M120,220 C180,250 220,190 280,220" />
  </defs>
  
  <!-- Background -->
  <rect x="0" y="0" width="500" height="300" rx="8" fill="url(#bgGradient)"/>
  
  <!-- Main Title -->
  <text x="250" y="40" font-family="Segoe UI, Arial, sans-serif" font-size="20" font-weight="bold" fill="white" text-anchor="middle">AI Agents Platform</text>
  
  <!-- Left Panel: AI Brain -->
  <g transform="translate(110, 130)">
    <!-- Central AI Core -->
    <circle cx="40" cy="40" r="30" fill="none" stroke="url(#neuronsGradient)" stroke-width="1.5" opacity="0.8">
      <animate attributeName="r" values="30;32;30" dur="4s" repeatCount="indefinite"/>
      <animate attributeName="opacity" values="0.8;1;0.8" dur="4s" repeatCount="indefinite"/>
    </circle>
    
    <!-- Neural Network -->
    <!-- Layer 1 (Input) -->
    <circle cx="-30" cy="10" r="4" fill="url(#neuronsGradient)" filter="url(#glow)"/>
    <circle cx="-30" cy="40" r="4" fill="url(#neuronsGradient)" filter="url(#glow)"/>
    <circle cx="-30" cy="70" r="4" fill="url(#neuronsGradient)" filter="url(#glow)"/>
    
    <!-- Layer 2 (Hidden) -->
    <circle cx="10" cy="0" r="4" fill="url(#neuronsGradient)" filter="url(#glow)"/>
    <circle cx="10" cy="25" r="4" fill="url(#neuronsGradient)" filter="url(#glow)"/>
    <circle cx="10" cy="55" r="4" fill="url(#neuronsGradient)" filter="url(#glow)"/>
    <circle cx="10" cy="80" r="4" fill="url(#neuronsGradient)" filter="url(#glow)"/>
    
    <!-- Layer 3 (Hidden) -->
    <circle cx="40" cy="10" r="4" fill="url(#neuronsGradient)" filter="url(#glow)"/>
    <circle cx="40" cy="40" r="4" fill="url(#neuronsGradient)" filter="url(#glow)"/>
    <circle cx="40" cy="70" r="4" fill="url(#neuronsGradient)" filter="url(#glow)"/>
    
    <!-- Layer 4 (Output) -->
    <circle cx="70" cy="20" r="4" fill="url(#neuronsGradient)" filter="url(#glow)"/>
    <circle cx="70" cy="60" r="4" fill="url(#neuronsGradient)" filter="url(#glow)"/>
    
    <!-- Layer 5 (Action) -->
    <circle cx="110" cy="40" r="4" fill="url(#neuronsGradient)" filter="url(#glow)"/>
    
    <!-- Connections -->
    <!-- Layer 1 to Layer 2 -->
    <line x1="-30" y1="10" x2="10" y2="0" stroke="url(#accentGradient)" stroke-width="1" opacity="0.6"/>
    <line x1="-30" y1="10" x2="10" y2="25" stroke="url(#accentGradient)" stroke-width="1" opacity="0.6"/>
    <line x1="-30" y1="40" x2="10" y2="25" stroke="url(#accentGradient)" stroke-width="1" opacity="0.6"/>
    <line x1="-30" y1="40" x2="10" y2="55" stroke="url(#accentGradient)" stroke-width="1" opacity="0.6"/>
    <line x1="-30" y1="70" x2="10" y2="55" stroke="url(#accentGradient)" stroke-width="1" opacity="0.6"/>
    <line x1="-30" y1="70" x2="10" y2="80" stroke="url(#accentGradient)" stroke-width="1" opacity="0.6"/>
    
    <!-- Layer 2 to Layer 3 -->
    <line x1="10" y1="0" x2="40" y2="10" stroke="url(#accentGradient)" stroke-width="1" opacity="0.6"/>
    <line x1="10" y1="25" x2="40" y2="10" stroke="url(#accentGradient)" stroke-width="1" opacity="0.6"/>
    <line x1="10" y1="25" x2="40" y2="40" stroke="url(#accentGradient)" stroke-width="1" opacity="0.6"/>
    <line x1="10" y1="55" x2="40" y2="40" stroke="url(#accentGradient)" stroke-width="1" opacity="0.6"/>
    <line x1="10" y1="55" x2="40" y2="70" stroke="url(#accentGradient)" stroke-width="1" opacity="0.6"/>
    <line x1="10" y1="80" x2="40" y2="70" stroke="url(#accentGradient)" stroke-width="1" opacity="0.6"/>
    
    <!-- Layer 3 to Layer 4 -->
    <line x1="40" y1="10" x2="70" y2="20" stroke="url(#accentGradient)" stroke-width="1" opacity="0.6"/>
    <line x1="40" y1="40" x2="70" y2="20" stroke="url(#accentGradient)" stroke-width="1" opacity="0.6"/>
    <line x1="40" y1="40" x2="70" y2="60" stroke="url(#accentGradient)" stroke-width="1" opacity="0.6"/>
    <line x1="40" y1="70" x2="70" y2="60" stroke="url(#accentGradient)" stroke-width="1" opacity="0.6"/>
    
    <!-- Layer 4 to Layer 5 -->
    <line x1="70" y1="20" x2="110" y2="40" stroke="url(#accentGradient)" stroke-width="1" opacity="0.6"/>
    <line x1="70" y1="60" x2="110" y2="40" stroke="url(#accentGradient)" stroke-width="1" opacity="0.6"/>
    
    <!-- Animated data packets -->
    <circle cx="0" cy="0" r="2" fill="white" filter="url(#glow)">
      <animateMotion
        path="M-30,10 L10,0 L40,10 L70,20 L110,40"
        dur="4s"
        repeatCount="indefinite"
        rotate="auto"
      />
    </circle>
    
    <circle cx="0" cy="0" r="2" fill="white" filter="url(#glow)">
      <animateMotion
        path="M-30,40 L10,25 L40,40 L70,60 L110,40"
        dur="4.5s"
        begin="0.5s"
        repeatCount="indefinite"
        rotate="auto"
      />
    </circle>
    
    <circle cx="0" cy="0" r="2" fill="white" filter="url(#glow)">
      <animateMotion
        path="M-30,70 L10,80 L40,70 L70,60 L110,40"
        dur="4.2s"
        begin="1s"
        repeatCount="indefinite"
        rotate="auto"
      />
    </circle>
    
    <!-- AI Core Labels -->
    <text x="40" y="-10" font-family="Segoe UI, Arial, sans-serif" font-size="12" font-weight="bold" fill="url(#accentGradient)" text-anchor="middle">AI Core</text>
    
    <text x="-30" y="-10" font-family="Segoe UI, Arial, sans-serif" font-size="10" fill="white" text-anchor="middle">Input</text>
    <text x="110" y="20" font-family="Segoe UI, Arial, sans-serif" font-size="10" fill="white" text-anchor="middle">Action</text>
  </g>
  
  <!-- Right Panel: AI Functions -->
  <g transform="translate(290, 100)">
    <!-- Data Analysis Section -->
    <text x="0" y="0" font-family="Segoe UI, Arial, sans-serif" font-size="14" font-weight="bold" fill="white">AI Capabilities</text>
    
    <!-- Function List -->
    <g transform="translate(0, 20)">
      <!-- Function 1 -->
      <rect x="0" y="0" width="180" height="30" rx="4" fill="url(#cardGradient)" filter="url(#softShadow)">
        <animate attributeName="opacity" values="0.8;1;0.8" dur="4s" begin="0.2s" repeatCount="indefinite"/>
      </rect>
      <text x="10" y="20" font-family="Segoe UI, Arial, sans-serif" font-size="12" fill="white">Document Processing</text>
      <circle cx="170" cy="15" r="8" fill="url(#chartGradient1)" filter="url(#glow)"/>
      
      <!-- Function 2 -->
      <rect x="0" y="40" width="180" height="30" rx="4" fill="url(#cardGradient)" filter="url(#softShadow)">
        <animate attributeName="opacity" values="0.8;1;0.8" dur="4s" begin="0.5s" repeatCount="indefinite"/>
      </rect>
      <text x="10" y="60" font-family="Segoe UI, Arial, sans-serif" font-size="12" fill="white">Anomaly Detection</text>
      <circle cx="170" cy="55" r="8" fill="url(#chartGradient2)" filter="url(#glow)"/>
      
      <!-- Function 3 -->
      <rect x="0" y="80" width="180" height="30" rx="4" fill="url(#cardGradient)" filter="url(#softShadow)">
        <animate attributeName="opacity" values="0.8;1;0.8" dur="4s" begin="0.8s" repeatCount="indefinite"/>
      </rect>
      <text x="10" y="100" font-family="Segoe UI, Arial, sans-serif" font-size="12" fill="white">Automated Correspondence</text>
      <circle cx="170" cy="95" r="8" fill="url(#neuronsGradient)" filter="url(#glow)"/>
      
      <!-- Function 4 -->
      <rect x="0" y="120" width="180" height="30" rx="4" fill="url(#cardGradient)" filter="url(#softShadow)">
        <animate attributeName="opacity" values="0.8;1;0.8" dur="4s" begin="1.1s" repeatCount="indefinite"/>
      </rect>
      <text x="10" y="140" font-family="Segoe UI, Arial, sans-serif" font-size="12" fill="white">Predictive Analytics</text>
      <circle cx="170" cy="135" r="8" fill="url(#chartGradient3)" filter="url(#glow)"/>
    </g>
  </g>
  
  <!-- Bottom Panel: AI Insights -->
  <g transform="translate(100, 250)">
    <text x="150" y="0" font-family="Segoe UI, Arial, sans-serif" font-size="14" font-weight="bold" fill="white" text-anchor="middle">Real-time Insights</text>
    
    <!-- Trend Graph -->
    <g transform="translate(20, 10)">
      <!-- Graph Lines -->
      <path d="M0,20 L50,15 L100,25 L150,5 L200,18 L250,10" stroke="url(#chartGradient1)" stroke-width="2" fill="none"/>
      <path d="M0,30 L50,35 L100,28 L150,40 L200,25 L250,30" stroke="url(#chartGradient2)" stroke-width="2" fill="none" opacity="0.8"/>
      
      <!-- Data Points -->
      <circle cx="0" cy="20" r="3" fill="url(#chartGradient1)"/>
      <circle cx="50" cy="15" r="3" fill="url(#chartGradient1)"/>
      <circle cx="100" cy="25" r="3" fill="url(#chartGradient1)"/>
      <circle cx="150" cy="5" r="3" fill="url(#chartGradient1)"/>
      <circle cx="200" cy="18" r="3" fill="url(#chartGradient1)"/>
      <circle cx="250" cy="10" r="3" fill="url(#chartGradient1)"/>
      
      <circle cx="0" cy="30" r="3" fill="url(#chartGradient2)"/>
      <circle cx="50" cy="35" r="3" fill="url(#chartGradient2)"/>
      <circle cx="100" cy="28" r="3" fill="url(#chartGradient2)"/>
      <circle cx="150" cy="40" r="3" fill="url(#chartGradient2)"/>
      <circle cx="200" cy="25" r="3" fill="url(#chartGradient2)"/>
      <circle cx="250" cy="30" r="3" fill="url(#chartGradient2)"/>
      
      <!-- Animated trend prediction line -->
      <path d="M200,18 C210,17 220,14 250,5" stroke="white" stroke-width="1.5" stroke-dasharray="4,2" opacity="0">
        <animate attributeName="opacity" values="0;0.7;0" dur="3s" repeatCount="indefinite"/>
      </path>
      
      <path d="M200,25 C210,27 220,32 250,35" stroke="white" stroke-width="1.5" stroke-dasharray="4,2" opacity="0">
        <animate attributeName="opacity" values="0;0.7;0" dur="3s" begin="1.5s" repeatCount="indefinite"/>
      </path>
    </g>
  </g>
  
  <!-- Animated data packets connecting sections -->
  <circle cx="0" cy="0" r="2" fill="white" filter="url(#glow)">
    <animateMotion 
      path="M150,150 L250,120 L350,150"
      dur="3s"
      repeatCount="indefinite"
      rotate="auto"
    />
  </circle>
  
  <circle cx="0" cy="0" r="2" fill="white" filter="url(#glow)">
    <animateMotion 
      path="M150,170 L270,230 L350,170"
      dur="4s"
      begin="1s"
      repeatCount="indefinite"
      rotate="auto"
    />
  </circle>
  
  <!-- Glow Effects -->
  <circle cx="250" cy="150" r="120" fill="none" stroke="url(#accentGradient)" stroke-width="1" opacity="0.1">
    <animate attributeName="r" values="120;140;120" dur="10s" repeatCount="indefinite"/>
    <animate attributeName="opacity" values="0.1;0.2;0.1" dur="10s" repeatCount="indefinite"/>
  </circle>
</svg> 