<?xml version="1.0" encoding="UTF-8"?>
<svg width="500" height="300" viewBox="0 0 500 300" xmlns="http://www.w3.org/2000/svg">
  <!-- Browser window -->
  <rect x="20" y="20" width="460" height="260" rx="8" fill="#1E2A3A" stroke="#3A5BD9" stroke-width="2"/>
  
  <!-- Browser toolbar -->
  <rect x="20" y="20" width="460" height="40" rx="8" fill="#2C3E50" stroke="none"/>
  <rect x="20" y="20" width="460" height="8" rx="8" fill="#3A5BD9" stroke="none"/>
  
  <!-- Browser controls -->
  <circle cx="45" cy="40" r="5" fill="#FC6058"/>
  <circle cx="65" cy="40" r="5" fill="#FEC02F"/>
  <circle cx="85" cy="40" r="5" fill="#2ACA3E"/>
  
  <!-- Address bar -->
  <rect x="110" y="30" width="300" height="20" rx="4" fill="#1A2530" stroke="#4A6ADA" stroke-width="1"/>
  <text x="125" y="44" font-family="Arial, sans-serif" font-size="10" fill="#B2C7E8">https://maestro.io/ai-agents</text>
  
  <!-- Browser content -->
  <rect x="35" y="75" width="430" height="190" rx="4" fill="#1A2530" stroke="none"/>
  
  <!-- AI Header -->
  <rect x="50" y="90" width="400" height="40" rx="4" fill="#2C3E50" stroke="#4A6ADA" stroke-width="1"/>
  <text x="65" y="115" font-family="Arial, sans-serif" font-size="16" fill="#FFFFFF" font-weight="bold">AI Agent Console</text>
  
  <!-- Chat panel -->
  <rect x="50" y="140" width="270" height="120" rx="4" fill="#2C3E50" stroke="#4A6ADA" stroke-width="1"/>
  
  <!-- AI message -->
  <rect x="60" y="150" width="200" height="40" rx="4" fill="#1A2530" stroke="none"/>
  <text x="70" y="165" font-family="Arial, sans-serif" font-size="10" fill="#B2C7E8">AI Agent</text>
  <text x="70" y="180" font-family="Arial, sans-serif" font-size="12" fill="#FFFFFF">How can I help with your trial data?</text>
  
  <!-- User message -->
  <rect x="110" y="200" width="200" height="40" rx="4" fill="#4A6ADA" stroke="none"/>
  <text x="120" y="215" font-family="Arial, sans-serif" font-size="10" fill="#FFFFFF">You</text>
  <text x="120" y="230" font-family="Arial, sans-serif" font-size="12" fill="#FFFFFF">Analyze patient enrollment trends</text>
  
  <!-- Chat input -->
  <rect x="60" y="250" width="250" height="30" rx="15" fill="#1A2530" stroke="#4A6ADA" stroke-width="1"/>
  <text x="75" y="270" font-family="Arial, sans-serif" font-size="12" fill="#B2C7E8">Ask a question...</text>
  <circle cx="290" cy="265" r="12" fill="#4A6ADA" stroke="none"/>
  <text x="290" y="270" font-family="Arial, sans-serif" font-size="14" fill="#FFFFFF" font-weight="bold" text-anchor="middle">➤</text>
  
  <!-- AI Visualization panel -->
  <rect x="330" y="140" width="120" height="120" rx="4" fill="#2C3E50" stroke="#4A6ADA" stroke-width="1"/>
  
  <!-- Brain visualization -->
  <circle cx="390" cy="170" r="25" fill="none" stroke="#4A6ADA" stroke-width="1.5"/>
  
  <!-- Neural network representation -->
  <circle cx="375" cy="155" r="3" fill="#4A6ADA"/>
  <circle cx="405" cy="155" r="3" fill="#4A6ADA"/>
  <circle cx="360" cy="170" r="3" fill="#4A6ADA"/>
  <circle cx="390" cy="170" r="3" fill="#4A6ADA"/>
  <circle cx="420" cy="170" r="3" fill="#4A6ADA"/>
  <circle cx="375" cy="185" r="3" fill="#4A6ADA"/>
  <circle cx="405" cy="185" r="3" fill="#4A6ADA"/>
  
  <!-- Connections -->
  <line x1="375" y1="155" x2="360" y2="170" stroke="#4A6ADA" stroke-width="1"/>
  <line x1="375" y1="155" x2="390" y2="170" stroke="#4A6ADA" stroke-width="1"/>
  <line x1="405" y1="155" x2="390" y2="170" stroke="#4A6ADA" stroke-width="1"/>
  <line x1="405" y1="155" x2="420" y2="170" stroke="#4A6ADA" stroke-width="1"/>
  <line x1="360" y1="170" x2="375" y2="185" stroke="#4A6ADA" stroke-width="1"/>
  <line x1="390" y1="170" x2="375" y2="185" stroke="#4A6ADA" stroke-width="1"/>
  <line x1="390" y1="170" x2="405" y2="185" stroke="#4A6ADA" stroke-width="1"/>
  <line x1="420" y1="170" x2="405" y2="185" stroke="#4A6ADA" stroke-width="1"/>
  
  <!-- Data visualization -->
  <rect x="350" y="205" width="80" height="40" rx="4" fill="#1A2530" stroke="none"/>
  <rect x="360" y="215" width="15" height="20" rx="2" fill="#4A6ADA" stroke="none">
    <animate attributeName="height" values="20;30;20" dur="2s" repeatCount="indefinite"/>
  </rect>
  <rect x="380" y="215" width="15" height="20" rx="2" fill="#4A6ADA" stroke="none">
    <animate attributeName="height" values="20;10;20" dur="2s" repeatCount="indefinite"/>
  </rect>
  <rect x="400" y="215" width="15" height="20" rx="2" fill="#4A6ADA" stroke="none">
    <animate attributeName="height" values="20;25;20" dur="2s" repeatCount="indefinite"/>
  </rect>
  
  <!-- Pulse animation around brain -->
  <circle cx="390" cy="170" r="30" fill="none" stroke="#4A6ADA" stroke-width="0.5" opacity="0.5">
    <animate attributeName="r" values="30;40;30" dur="3s" repeatCount="indefinite"/>
    <animate attributeName="opacity" values="0.5;0;0.5" dur="3s" repeatCount="indefinite"/>
  </circle>
</svg> 