<?xml version="1.0" encoding="UTF-8"?>
<svg width="500" height="300" viewBox="0 0 500 300" xmlns="http://www.w3.org/2000/svg">
  <!-- Browser window -->
  <rect x="20" y="20" width="460" height="260" rx="8" fill="#1E2A3A" stroke="#3A5BD9" stroke-width="2"/>
  
  <!-- Browser toolbar -->
  <rect x="20" y="20" width="460" height="40" rx="8" fill="#2C3E50" stroke="none"/>
  <rect x="20" y="20" width="460" height="8" rx="8" fill="#3A5BD9" stroke="none"/>
  
  <!-- Browser controls -->
  <circle cx="45" cy="40" r="5" fill="#FC6058"/>
  <circle cx="65" cy="40" r="5" fill="#FEC02F"/>
  <circle cx="85" cy="40" r="5" fill="#2ACA3E"/>
  
  <!-- Address bar -->
  <rect x="110" y="30" width="300" height="20" rx="4" fill="#1A2530" stroke="#4A6ADA" stroke-width="1"/>
  <text x="125" y="44" font-family="Arial, sans-serif" font-size="10" fill="#B2C7E8">https://maestro.io/etmf-documents</text>
  
  <!-- Browser content -->
  <rect x="35" y="75" width="430" height="190" rx="4" fill="#1A2530" stroke="none"/>
  
  <!-- Left sidebar navigation -->
  <rect x="50" y="90" width="120" height="160" rx="4" fill="#2C3E50" stroke="#4A6ADA" stroke-width="1"/>
  <text x="65" y="110" font-family="Arial, sans-serif" font-size="12" fill="#FFFFFF" font-weight="bold">Categories</text>
  
  <rect x="60" y="125" width="100" height="25" rx="3" fill="#4A6ADA" stroke="none"/>
  <text x="70" y="142" font-family="Arial, sans-serif" font-size="11" fill="#FFFFFF">Study Documents</text>
  
  <rect x="60" y="155" width="100" height="25" rx="3" fill="#1A2530" stroke="none"/>
  <text x="70" y="172" font-family="Arial, sans-serif" font-size="11" fill="#B2C7E8">Regulatory</text>
  
  <rect x="60" y="185" width="100" height="25" rx="3" fill="#1A2530" stroke="none"/>
  <text x="70" y="202" font-family="Arial, sans-serif" font-size="11" fill="#B2C7E8">Subject Data</text>
  
  <rect x="60" y="215" width="100" height="25" rx="3" fill="#1A2530" stroke="none"/>
  <text x="70" y="232" font-family="Arial, sans-serif" font-size="11" fill="#B2C7E8">Safety Reports</text>
  
  <!-- Document list -->
  <rect x="190" y="90" width="260" height="160" rx="4" fill="#2C3E50" stroke="#4A6ADA" stroke-width="1"/>
  <text x="205" y="110" font-family="Arial, sans-serif" font-size="13" fill="#FFFFFF" font-weight="bold">Study Documents</text>
  
  <!-- Search bar -->
  <rect x="205" y="120" width="230" height="25" rx="4" fill="#1A2530" stroke="#4A6ADA" stroke-width="1"/>
  <text x="220" y="136" font-family="Arial, sans-serif" font-size="10" fill="#B2C7E8">Search documents...</text>
  
  <!-- Document items -->
  <rect x="205" y="155" width="230" height="30" rx="2" fill="#1A2530" stroke="none"/>
  <rect x="210" y="160" width="20" height="20" rx="2" fill="#4A6ADA" stroke="none"/>
  <text x="235" y="175" font-family="Arial, sans-serif" font-size="11" fill="#FFFFFF">Protocol-v2.0.pdf</text>
  <text x="415" y="175" font-family="Arial, sans-serif" font-size="10" fill="#B2C7E8" text-anchor="end">2.4 MB</text>
  
  <rect x="205" y="190" width="230" height="30" rx="2" fill="#1A2530" stroke="none"/>
  <rect x="210" y="195" width="20" height="20" rx="2" fill="#4A6ADA" stroke="none"/>
  <text x="235" y="210" font-family="Arial, sans-serif" font-size="11" fill="#FFFFFF">Informed-Consent.docx</text>
  <text x="415" y="210" font-family="Arial, sans-serif" font-size="10" fill="#B2C7E8" text-anchor="end">1.7 MB</text>
  
  <rect x="205" y="225" width="230" height="30" rx="2" fill="#1A2530" stroke="none"/>
  <rect x="210" y="230" width="20" height="20" rx="2" fill="#4A6ADA" stroke="none"/>
  <text x="235" y="245" font-family="Arial, sans-serif" font-size="11" fill="#FFFFFF">Study-Plan-2024.xlsx</text>
  <text x="415" y="245" font-family="Arial, sans-serif" font-size="10" fill="#B2C7E8" text-anchor="end">3.2 MB</text>
  
  <!-- Document icons -->
  <text x="217" y="175" font-family="Arial, sans-serif" font-size="11" fill="#FFFFFF" font-weight="bold">PDF</text>
  <text x="215" y="210" font-family="Arial, sans-serif" font-size="11" fill="#FFFFFF" font-weight="bold">DOC</text>
  <text x="217" y="245" font-family="Arial, sans-serif" font-size="11" fill="#FFFFFF" font-weight="bold">XLS</text>
</svg> 