<?xml version="1.0" encoding="UTF-8"?>
<svg width="500" height="300" viewBox="0 0 500 300" xmlns="http://www.w3.org/2000/svg">
  <!-- Definitions -->
  <defs>
    <!-- Gradients -->
    <linearGradient id="headerGradient" x1="0%" y1="0%" x2="100%" y2="0%">
      <stop offset="0%" stop-color="#2C3E50" />
      <stop offset="100%" stop-color="#1A2530" />
    </linearGradient>
    
    <linearGradient id="accentGradient" x1="0%" y1="0%" x2="100%" y2="100%">
      <stop offset="0%" stop-color="#4A6ADA" />
      <stop offset="100%" stop-color="#2C53C5" />
    </linearGradient>
    
    <linearGradient id="moduleGradient" x1="0%" y1="0%" x2="100%" y2="100%">
      <stop offset="0%" stop-color="#8E54E9" />
      <stop offset="100%" stop-color="#4A6ADA" />
    </linearGradient>
    
    <linearGradient id="nodeStartGradient" x1="0%" y1="0%" x2="100%" y2="100%">
      <stop offset="0%" stop-color="#0BAB64" />
      <stop offset="100%" stop-color="#3BB78F" />
    </linearGradient>
    
    <linearGradient id="nodeProcessGradient" x1="0%" y1="0%" x2="100%" y2="100%">
      <stop offset="0%" stop-color="#4A6ADA" />
      <stop offset="100%" stop-color="#6A8CFF" />
    </linearGradient>
    
    <linearGradient id="nodeDecisionGradient" x1="0%" y1="0%" x2="100%" y2="100%">
      <stop offset="0%" stop-color="#F9D423" />
      <stop offset="100%" stop-color="#FF9500" />
    </linearGradient>
    
    <linearGradient id="nodeEndGradient" x1="0%" y1="0%" x2="100%" y2="100%">
      <stop offset="0%" stop-color="#FF512F" />
      <stop offset="100%" stop-color="#DD2476" />
    </linearGradient>
    
    <linearGradient id="bgGradient" x1="0%" y1="0%" x2="0%" y2="100%">
      <stop offset="0%" stop-color="#1E2A3A" />
      <stop offset="100%" stop-color="#15202E" />
    </linearGradient>
    
    <!-- Filters -->
    <filter id="softShadow" x="-50%" y="-50%" width="200%" height="200%">
      <feGaussianBlur in="SourceAlpha" stdDeviation="3" />
      <feOffset dx="0" dy="2" result="offsetblur" />
      <feComponentTransfer>
        <feFuncA type="linear" slope="0.2" />
      </feComponentTransfer>
      <feMerge>
        <feMergeNode />
        <feMergeNode in="SourceGraphic" />
      </feMerge>
    </filter>
    
    <filter id="glow" x="-50%" y="-50%" width="200%" height="200%">
      <feGaussianBlur in="SourceGraphic" stdDeviation="2" />
      <feComponentTransfer>
        <feFuncA type="linear" slope="0.3" />
      </feComponentTransfer>
      <feMerge>
        <feMergeNode />
        <feMergeNode in="SourceGraphic" />
      </feMerge>
    </filter>
    
    <!-- Data flow markers -->
    <marker id="arrow" viewBox="0 0 10 10" refX="9" refY="5" 
      markerWidth="6" markerHeight="6" orient="auto">
      <path d="M 0 0 L 10 5 L 0 10 z" fill="url(#accentGradient)"/>
    </marker>
  </defs>
  
  <!-- Background -->
  <rect x="0" y="0" width="500" height="300" rx="8" fill="url(#bgGradient)"/>
  
  <!-- Title bar -->
  <rect x="20" y="20" width="460" height="40" rx="8" fill="url(#headerGradient)" filter="url(#softShadow)"/>
  <text x="40" y="45" font-family="Segoe UI, Arial, sans-serif" font-size="16" font-weight="bold" fill="white">Automated Workflow Designer</text>
  
  <!-- Toolbar -->
  <rect x="20" y="70" width="460" height="30" rx="4" fill="url(#accentGradient)" opacity="0.9" filter="url(#softShadow)"/>
  <text x="40" y="90" font-family="Segoe UI, Arial, sans-serif" font-size="12" fill="white">New</text>
  <text x="80" y="90" font-family="Segoe UI, Arial, sans-serif" font-size="12" fill="white">Save</text>
  <text x="120" y="90" font-family="Segoe UI, Arial, sans-serif" font-size="12" fill="white">Run</text>
  <text x="160" y="90" font-family="Segoe UI, Arial, sans-serif" font-size="12" fill="white">Debug</text>
  <text x="210" y="90" font-family="Segoe UI, Arial, sans-serif" font-size="12" fill="white">|</text>
  <text x="230" y="90" font-family="Segoe UI, Arial, sans-serif" font-size="12" fill="white">Clinical Protocol Approval</text>
  
  <!-- Canvas -->
  <rect x="20" y="110" width="460" height="170" rx="4" fill="#1A2530" stroke="url(#accentGradient)" stroke-width="1" filter="url(#softShadow)"/>
  
  <!-- Grid lines (subtle) -->
  <g stroke="#2C3E50" stroke-width="0.5" stroke-dasharray="2,2">
    <line x1="20" y1="140" x2="480" y2="140" />
    <line x1="20" y1="170" x2="480" y2="170" />
    <line x1="20" y1="200" x2="480" y2="200" />
    <line x1="20" y1="230" x2="480" y2="230" />
    <line x1="20" y1="260" x2="480" y2="260" />
    
    <line x1="80" y1="110" x2="80" y2="280" />
    <line x1="140" y1="110" x2="140" y2="280" />
    <line x1="200" y1="110" x2="200" y2="280" />
    <line x1="260" y1="110" x2="260" y2="280" />
    <line x1="320" y1="110" x2="320" y2="280" />
    <line x1="380" y1="110" x2="380" y2="280" />
    <line x1="440" y1="110" x2="440" y2="280" />
  </g>
  
  <!-- Workflow nodes -->
  <!-- Start node -->
  <circle cx="80" cy="150" r="20" fill="url(#nodeStartGradient)" filter="url(#softShadow)">
    <animate attributeName="opacity" values="0.8;1;0.8" dur="3s" repeatCount="indefinite"/>
  </circle>
  <text x="80" y="155" font-family="Segoe UI, Arial, sans-serif" font-size="10" fill="white" text-anchor="middle">Start</text>
  
  <!-- Process node 1 -->
  <rect x="140" y="130" width="80" height="40" rx="6" fill="url(#nodeProcessGradient)" filter="url(#softShadow)"/>
  <text x="180" y="155" font-family="Segoe UI, Arial, sans-serif" font-size="10" fill="white" text-anchor="middle">Document Review</text>
  
  <!-- Decision node -->
  <polygon points="320,130 350,150 320,170 290,150" fill="url(#nodeDecisionGradient)" filter="url(#softShadow)"/>
  <text x="320" y="155" font-family="Segoe UI, Arial, sans-serif" font-size="10" fill="white" text-anchor="middle">Approved?</text>
  
  <!-- Process node 2 (Yes path) -->
  <rect x="410" y="130" width="50" height="40" rx="6" fill="url(#nodeProcessGradient)" filter="url(#softShadow)"/>
  <text x="435" y="155" font-family="Segoe UI, Arial, sans-serif" font-size="10" fill="white" text-anchor="middle">Publish</text>
  
  <!-- Process node 3 (No path) -->
  <rect x="290" y="200" width="60" height="40" rx="6" fill="url(#nodeProcessGradient)" filter="url(#softShadow)"/>
  <text x="320" y="225" font-family="Segoe UI, Arial, sans-serif" font-size="10" fill="white" text-anchor="middle">Revise</text>
  
  <!-- End node -->
  <circle cx="435" cy="220" r="20" fill="url(#nodeEndGradient)" filter="url(#softShadow)"/>
  <text x="435" y="225" font-family="Segoe UI, Arial, sans-serif" font-size="10" fill="white" text-anchor="middle">End</text>
  
  <!-- Connection paths -->
  <path d="M100,150 L140,150" stroke="#4A6ADA" stroke-width="2" marker-end="url(#arrow)" fill="none"/>
  
  <path d="M220,150 L290,150" stroke="#4A6ADA" stroke-width="2" marker-end="url(#arrow)" fill="none"/>
  
  <path d="M350,150 L410,150" stroke="#0BAB64" stroke-width="2" marker-end="url(#arrow)" fill="none"/>
  <text x="380" y="140" font-family="Segoe UI, Arial, sans-serif" font-size="8" fill="#B2C7E8">Yes</text>
  
  <path d="M320,170 L320,200" stroke="#FF512F" stroke-width="2" marker-end="url(#arrow)" fill="none"/>
  <text x="330" y="185" font-family="Segoe UI, Arial, sans-serif" font-size="8" fill="#B2C7E8">No</text>
  
  <path d="M290,220 L180,220 L180,170" stroke="#4A6ADA" stroke-width="2" marker-end="url(#arrow)" fill="none"/>
  
  <path d="M435,170 L435,200" stroke="#4A6ADA" stroke-width="2" marker-end="url(#arrow)" fill="none"/>
  
  <!-- Animated data packet -->
  <circle cx="0" cy="0" r="4" fill="white" filter="url(#glow)">
    <animateMotion 
      path="M100,150 L140,150 L220,150 L290,150 L350,150 L410,150 L435,150 L435,220"
      dur="4s"
      repeatCount="indefinite"
      rotate="auto"
    />
  </circle>
  
  <circle cx="0" cy="0" r="4" fill="white" filter="url(#glow)">
    <animateMotion 
      path="M100,150 L140,150 L220,150 L290,150 L320,170 L320,200 L290,220 L180,220 L180,170"
      dur="6s"
      begin="2s"
      repeatCount="indefinite"
      rotate="auto"
    />
  </circle>
</svg> 